<svg width="107" height="98" viewBox="0 0 107 98" fill="none" xmlns="http://www.w3.org/2000/svg">
<path d="M67.9441 42.6923V23.7692C67.9441 19.587 66.4752 15.576 63.8604 12.6187C61.2457 9.6614 57.6994 8 54.0016 8C50.3039 8 46.7575 9.6614 44.1428 12.6187C41.5281 15.576 40.0592 19.587 40.0592 23.7692V42.6923M82.2807 34.3115L86.9765 84.773C87.2367 87.5694 85.3034 90 82.8161 90H25.1872C24.6006 90.0007 24.0203 89.8618 23.4842 89.5924C22.9481 89.3229 22.4681 88.9289 22.0753 88.436C21.6826 87.943 21.386 87.3622 21.2047 86.7311C21.0234 86.1 20.9615 85.4329 21.0231 84.773L25.7226 34.3115C25.831 33.149 26.3161 32.0731 27.0843 31.2912C27.8526 30.5093 28.8495 30.0767 29.883 30.0769H78.1202C80.2618 30.0769 82.0576 31.9062 82.2807 34.3115ZM41.4534 42.6923C41.4534 43.1105 41.3065 43.5116 41.0451 43.8074C40.7836 44.1031 40.429 44.2692 40.0592 44.2692C39.6894 44.2692 39.3348 44.1031 39.0733 43.8074C38.8118 43.5116 38.6649 43.1105 38.6649 42.6923C38.6649 42.2741 38.8118 41.873 39.0733 41.5773C39.3348 41.2815 39.6894 41.1154 40.0592 41.1154C40.429 41.1154 40.7836 41.2815 41.0451 41.5773C41.3065 41.873 41.4534 42.2741 41.4534 42.6923ZM69.3383 42.6923C69.3383 43.1105 69.1915 43.5116 68.93 43.8074C68.6685 44.1031 68.3139 44.2692 67.9441 44.2692C67.5743 44.2692 67.2197 44.1031 66.9582 43.8074C66.6967 43.5116 66.5499 43.1105 66.5499 42.6923C66.5499 42.2741 66.6967 41.873 66.9582 41.5773C67.2197 41.2815 67.5743 41.1154 67.9441 41.1154C68.3139 41.1154 68.6685 41.2815 68.93 41.5773C69.1915 41.873 69.3383 42.2741 69.3383 42.6923Z" stroke="#FCF8EE" stroke-width="5" stroke-linecap="round" stroke-linejoin="round"/>
</svg>
