<svg width="274" height="23" viewBox="0 0 274 23" fill="none" xmlns="http://www.w3.org/2000/svg">
<path d="M25.6562 22H0.34375V0.979492H24.499V6.17969H9.16211V9.47559H22.126V13.5186H9.16211V16.7998H25.6562V22ZM41.5498 22.4541C36.3545 22.4541 32.5312 21.3848 30.0801 19.2461C27.9121 17.3613 26.8281 14.7832 26.8281 11.5117C26.8281 8.24023 27.9121 5.65723 30.0801 3.7627C32.5312 1.63379 36.3545 0.569336 41.5498 0.569336C44.5967 0.569336 47.1162 0.920898 49.1084 1.62402C51.1006 2.31738 52.6484 3.26953 53.752 4.48047C54.8555 5.69141 55.5879 7.07812 55.9492 8.64062H46.6768C45.749 7.00977 44.04 6.19434 41.5498 6.19434C39.4209 6.19434 37.8535 6.80957 36.8477 8.04004C36.0469 9.0166 35.6465 10.1738 35.6465 11.5117C35.6465 12.8496 36.0469 14.0068 36.8477 14.9834C37.8535 16.2139 39.4209 16.8291 41.5498 16.8291C44.04 16.8291 45.749 16.0088 46.6768 14.3682H55.9492C55.5879 15.9404 54.8555 17.332 53.752 18.543C52.6484 19.7539 51.1006 20.7109 49.1084 21.4141C47.1162 22.1074 44.5967 22.4541 41.5498 22.4541ZM73.0146 22.4541C67.8193 22.4541 63.9961 21.3848 61.5449 19.2461C59.377 17.3516 58.293 14.7686 58.293 11.4971C58.293 8.23535 59.377 5.65723 61.5449 3.7627C63.9961 1.62402 67.8193 0.554688 73.0146 0.554688C78.21 0.554688 82.0332 1.62402 84.4844 3.7627C86.6523 5.65723 87.7363 8.23535 87.7363 11.4971C87.7363 14.7686 86.6523 17.3516 84.4844 19.2461C82.0332 21.3848 78.21 22.4541 73.0146 22.4541ZM73.0146 16.8145C75.1436 16.8145 76.7061 16.2041 77.7021 14.9834C78.5029 13.9971 78.9033 12.835 78.9033 11.4971C78.9033 10.1592 78.5029 9.00195 77.7021 8.02539C76.7061 6.79492 75.1436 6.17969 73.0146 6.17969C70.8857 6.17969 69.3184 6.79492 68.3125 8.02539C67.5117 9.00195 67.1113 10.1592 67.1113 11.4971C67.1113 12.835 67.5117 13.9971 68.3125 14.9834C69.3184 16.2041 70.8857 16.8145 73.0146 16.8145ZM102.795 22.4541C99.9531 22.4541 97.6631 22.1514 95.9248 21.5459C94.1865 20.9307 92.8633 20.0908 91.9551 19.0264C91.0469 17.9521 90.4365 16.7168 90.124 15.3203H99.4844C100.178 16.3164 101.281 16.8145 102.795 16.8145C104.309 16.8145 105.412 16.3164 106.105 15.3203C106.164 15.2227 106.193 15.1348 106.193 15.0566C106.193 14.793 105.842 14.5977 105.139 14.4707C104.445 14.334 103.405 14.2314 102.019 14.1631C100.271 14.085 98.4346 13.8994 96.5107 13.6064C92.2236 12.9424 90.0801 11.2188 90.0801 8.43555C90.0801 8.20117 90.0947 7.95215 90.124 7.68848C90.4365 6.29199 91.0469 5.06152 91.9551 3.99707C92.8633 2.92285 94.1865 2.08301 95.9248 1.47754C97.6631 0.862305 99.9531 0.554688 102.795 0.554688C105.637 0.554688 107.927 0.862305 109.665 1.47754C111.403 2.08301 112.727 2.92285 113.635 3.99707C114.543 5.06152 115.153 6.29199 115.466 7.68848H106.105C105.412 6.69238 104.309 6.19434 102.795 6.19434C101.281 6.19434 100.178 6.69238 99.4844 7.68848C99.4355 7.7666 99.4111 7.83984 99.4111 7.9082C99.4111 8.14258 99.7432 8.31836 100.407 8.43555C101.081 8.54297 102.067 8.63574 103.366 8.71387C104.675 8.79199 106.066 8.91895 107.541 9.09473C109.016 9.27051 110.393 9.57812 111.672 10.0176C112.961 10.4473 113.967 11.0869 114.689 11.9365C115.256 12.5908 115.539 13.4209 115.539 14.4268C115.539 14.71 115.515 15.0078 115.466 15.3203C115.153 16.7168 114.543 17.9521 113.635 19.0264C112.727 20.0908 111.403 20.9307 109.665 21.5459C107.927 22.1514 105.637 22.4541 102.795 22.4541ZM147.766 22H138.947V13.5186H127.873V22H119.055V0.979492H127.873V9.47559H138.947V0.979492H147.766V22ZM166.003 22.4541C160.808 22.4541 156.984 21.3848 154.533 19.2461C152.365 17.3516 151.281 14.7686 151.281 11.4971C151.281 8.23535 152.365 5.65723 154.533 3.7627C156.984 1.62402 160.808 0.554688 166.003 0.554688C171.198 0.554688 175.021 1.62402 177.473 3.7627C179.641 5.65723 180.725 8.23535 180.725 11.4971C180.725 14.7686 179.641 17.3516 177.473 19.2461C175.021 21.3848 171.198 22.4541 166.003 22.4541ZM166.003 16.8145C168.132 16.8145 169.694 16.2041 170.69 14.9834C171.491 13.9971 171.892 12.835 171.892 11.4971C171.892 10.1592 171.491 9.00195 170.69 8.02539C169.694 6.79492 168.132 6.17969 166.003 6.17969C163.874 6.17969 162.307 6.79492 161.301 8.02539C160.5 9.00195 160.1 10.1592 160.1 11.4971C160.1 12.835 160.5 13.9971 161.301 14.9834C162.307 16.2041 163.874 16.8145 166.003 16.8145ZM193.059 22H184.24V0.979492H198.581C202.009 0.979492 204.772 1.23828 206.872 1.75586C208.981 2.26367 210.52 3.06934 211.486 4.17285C212.453 5.2666 212.937 6.69727 212.937 8.46484C212.937 10.2227 212.453 11.6533 211.486 12.7568C210.52 13.8506 208.981 14.6562 206.872 15.1738C204.772 15.6816 202.009 15.9355 198.581 15.9355H193.059V22ZM193.059 10.75L198.098 10.7354C199.504 10.7354 200.612 10.6816 201.423 10.5742C202.233 10.457 202.829 10.2959 203.21 10.0908C203.601 9.88574 203.85 9.64648 203.957 9.37305C204.064 9.08984 204.118 8.78711 204.118 8.46484C204.118 8.13281 204.064 7.83008 203.957 7.55664C203.85 7.27344 203.601 7.0293 203.21 6.82422C202.829 6.61914 202.233 6.46289 201.423 6.35547C200.612 6.23828 199.504 6.17969 198.098 6.17969H193.059V10.75ZM225.285 22H216.467V0.979492H230.808C234.235 0.979492 236.999 1.23828 239.099 1.75586C241.208 2.26367 242.746 3.06934 243.713 4.17285C244.68 5.2666 245.163 6.69727 245.163 8.46484C245.163 10.2227 244.68 11.6533 243.713 12.7568C242.746 13.8506 241.208 14.6562 239.099 15.1738C236.999 15.6816 234.235 15.9355 230.808 15.9355H225.285V22ZM225.285 10.75L230.324 10.7354C231.73 10.7354 232.839 10.6816 233.649 10.5742C234.46 10.457 235.056 10.2959 235.437 10.0908C235.827 9.88574 236.076 9.64648 236.184 9.37305C236.291 9.08984 236.345 8.78711 236.345 8.46484C236.345 8.13281 236.291 7.83008 236.184 7.55664C236.076 7.27344 235.827 7.0293 235.437 6.82422C235.056 6.61914 234.46 6.46289 233.649 6.35547C232.839 6.23828 231.73 6.17969 230.324 6.17969H225.285V10.75ZM274.006 22H248.693V0.979492H272.849V6.17969H257.512V9.47559H270.476V13.5186H257.512V16.7998H274.006V22Z" fill="white"/>
</svg>
